<?xml version="1.0" encoding="UTF-8" ?>
<!DOCTYPE svg PUBLIC "-//W3C//DTD SVG 1.1//EN" "http://www.w3.org/Graphics/SVG/1.1/DTD/svg11.dtd">
<svg width="64pt" height="64pt" viewBox="0 0 64 64" version="1.1" xmlns="http://www.w3.org/2000/svg">
<g id="#000000ff">
<path fill="#000000" opacity="1.00" d=" M 0.00 0.00 L 64.00 0.00 L 64.00 64.00 L 0.00 64.00 L 0.00 0.00 M 12.74 3.74 C 7.65 7.34 5.94 14.72 8.75 20.27 C 11.29 25.68 17.21 27.88 21.74 31.25 C 25.23 33.90 27.95 37.35 31.05 40.41 C 31.48 40.30 32.35 40.08 32.79 39.96 C 33.32 35.81 32.98 31.62 33.07 27.45 C 34.71 26.40 36.92 25.76 37.74 23.82 C 38.56 21.45 38.82 18.93 39.27 16.47 C 40.43 15.35 42.25 13.85 41.15 12.04 C 40.28 9.71 36.79 9.82 35.73 11.95 C 34.95 13.78 36.70 15.21 37.33 16.76 C 37.30 18.93 37.04 21.18 36.20 23.20 C 35.02 25.16 32.15 26.26 30.15 24.85 C 27.09 23.49 27.65 19.56 26.91 16.84 C 32.15 13.59 36.28 8.14 42.50 6.77 C 44.77 7.40 47.32 8.19 48.43 10.49 C 50.57 14.19 49.02 18.72 46.18 21.56 C 46.14 23.64 46.21 25.73 46.38 27.82 C 49.72 25.67 52.92 22.88 54.21 19.00 C 56.61 13.11 53.94 5.64 48.25 2.74 C 46.10 1.54 43.60 1.35 41.20 1.11 C 37.23 1.83 33.90 4.10 31.21 7.02 C 28.67 4.00 25.27 1.94 21.40 1.13 C 18.38 1.38 15.19 1.80 12.74 3.74 M 43.08 16.78 C 42.81 19.22 42.78 21.68 42.84 24.13 C 40.13 26.43 37.32 28.62 34.53 30.83 C 34.73 32.59 34.77 34.37 34.96 36.13 C 38.62 34.77 41.58 32.00 44.30 29.27 C 43.95 25.20 45.75 20.22 43.08 16.78 M 8.54 42.82 C 8.54 48.36 8.54 53.90 8.54 59.43 C 11.22 59.43 13.90 59.44 16.58 59.42 C 16.52 58.70 16.41 57.24 16.35 56.52 C 14.89 56.38 13.41 56.38 11.95 56.33 C 11.95 55.38 11.94 53.48 11.94 52.52 C 13.21 52.53 14.47 52.53 15.73 52.54 C 15.81 51.40 15.89 50.26 15.96 49.12 C 14.62 49.12 13.28 49.12 11.94 49.12 C 11.94 48.31 11.94 46.70 11.94 45.89 C 13.45 45.88 14.96 45.89 16.47 45.88 C 16.46 45.12 16.46 43.58 16.46 42.82 C 13.82 42.82 11.18 42.82 8.54 42.82 M 16.84 46.03 C 16.51 49.39 16.58 52.79 16.79 56.16 C 17.81 60.38 24.68 60.64 26.38 56.78 C 26.56 55.38 26.65 53.97 26.63 52.55 C 25.83 52.53 24.21 52.50 23.40 52.48 C 23.32 53.75 23.24 55.02 23.17 56.29 C 22.42 56.27 20.92 56.24 20.16 56.22 C 20.05 52.92 19.77 49.57 20.29 46.30 C 22.54 44.67 23.65 47.42 23.54 49.28 C 24.35 49.26 25.95 49.23 26.76 49.21 C 26.58 47.57 26.85 45.65 25.57 44.35 C 23.16 41.81 17.85 42.39 16.84 46.03 M 29.32 43.46 C 27.26 44.34 26.79 46.81 26.88 48.82 C 27.01 51.39 26.42 54.09 27.21 56.59 C 28.61 60.70 35.91 60.49 36.79 56.15 C 37.02 52.79 37.06 49.39 36.76 46.04 C 35.94 42.97 31.88 42.10 29.32 43.46 M 38.52 43.59 C 38.52 48.65 38.50 53.71 38.54 58.77 C 39.32 58.76 40.87 58.72 41.64 58.70 C 41.64 57.01 41.64 55.31 41.67 53.62 L 42.99 52.38 C 45.74 53.36 44.24 56.65 44.63 58.79 C 45.51 58.72 47.25 58.57 48.13 58.49 C 47.92 57.70 47.51 56.12 47.31 55.33 C 48.55 56.86 49.90 58.25 51.72 59.11 C 53.62 58.54 56.25 58.27 56.82 55.96 C 57.40 51.85 56.96 47.67 57.07 43.52 C 54.82 43.52 52.57 43.54 50.33 43.57 C 50.28 45.97 51.83 46.60 53.94 46.43 C 53.91 49.41 54.12 52.40 53.77 55.36 C 53.18 55.61 52.00 56.12 51.42 56.37 C 51.23 54.88 51.07 53.39 50.91 51.90 C 49.34 52.11 47.75 52.08 46.18 52.27 C 49.06 49.33 47.98 43.51 43.32 43.38 C 41.72 43.46 40.12 43.53 38.52 43.59 Z" />
<path fill="#000000" opacity="1.00" d=" M 12.91 13.31 C 13.93 9.43 17.16 6.56 21.33 6.84 C 22.79 7.54 24.21 8.29 25.64 9.03 C 23.96 13.55 25.55 18.38 26.38 22.90 C 26.84 25.28 29.35 26.18 31.12 27.42 C 31.22 29.11 31.31 30.80 31.40 32.49 C 28.74 29.96 26.07 27.43 23.05 25.34 C 19.96 23.30 16.76 21.41 13.89 19.06 C 17.31 18.90 20.73 18.90 24.15 18.83 C 23.92 17.03 23.73 15.23 23.45 13.44 C 19.94 13.36 16.42 13.41 12.91 13.31 Z" />
<path fill="#000000" opacity="1.00" d=" M 30.53 46.48 C 31.51 45.71 32.49 45.72 33.45 46.53 C 33.76 49.30 33.69 52.12 33.57 54.91 C 33.96 56.58 30.91 57.17 30.52 55.67 C 30.18 52.63 30.22 49.53 30.53 46.48 Z" />
<path fill="#000000" opacity="1.00" d=" M 41.67 46.89 C 42.14 46.56 43.08 45.91 43.55 45.58 C 44.17 47.04 44.91 48.62 44.53 50.25 C 43.82 50.23 42.39 50.19 41.68 50.17 C 41.64 49.08 41.62 47.98 41.67 46.89 Z" />
</g>
<g id="#00f5a8ff">
<path fill="#00f5a8" opacity="1.00" d=" M 12.74 3.74 C 15.19 1.80 18.38 1.38 21.40 1.13 C 21.38 3.04 21.36 4.94 21.33 6.84 C 17.16 6.56 13.93 9.43 12.91 13.31 C 16.42 13.41 19.94 13.36 23.45 13.44 C 23.73 15.23 23.92 17.03 24.15 18.83 C 20.73 18.90 17.31 18.90 13.89 19.06 C 16.76 21.41 19.96 23.30 23.05 25.34 C 22.62 27.31 22.18 29.29 21.74 31.25 C 17.21 27.88 11.29 25.68 8.75 20.27 C 5.94 14.72 7.65 7.34 12.74 3.74 Z" />
<path fill="#00f5a8" opacity="1.00" d=" M 38.52 43.59 C 40.12 43.53 41.72 43.46 43.32 43.38 C 43.38 43.93 43.49 45.03 43.55 45.58 C 43.08 45.91 42.14 46.56 41.67 46.89 C 41.62 47.98 41.64 49.08 41.68 50.17 C 42.39 50.19 43.82 50.23 44.53 50.25 C 44.05 50.98 43.54 51.69 42.99 52.38 L 41.67 53.62 C 41.64 55.31 41.64 57.01 41.64 58.70 C 40.87 58.72 39.32 58.76 38.54 58.77 C 38.50 53.71 38.52 48.65 38.52 43.59 Z" />
</g>
<g id="#00e4cbff">
<path fill="#00e4cb" opacity="1.00" d=" M 21.40 1.13 C 25.27 1.94 28.67 4.00 31.21 7.02 C 33.90 4.10 37.23 1.83 41.20 1.11 C 41.66 2.99 42.11 4.87 42.50 6.77 C 36.28 8.14 32.15 13.59 26.91 16.84 C 27.65 19.56 27.09 23.49 30.15 24.85 C 32.15 26.26 35.02 25.16 36.20 23.20 C 37.04 21.18 37.30 18.93 37.33 16.76 C 36.70 15.21 34.95 13.78 35.73 11.95 C 36.79 9.82 40.28 9.71 41.15 12.04 C 42.25 13.85 40.43 15.35 39.27 16.47 C 38.82 18.93 38.56 21.45 37.74 23.82 C 36.92 25.76 34.71 26.40 33.07 27.45 C 32.98 31.62 33.32 35.81 32.79 39.96 C 32.35 40.08 31.48 40.30 31.05 40.41 C 27.95 37.35 25.23 33.90 21.74 31.25 C 22.18 29.29 22.62 27.31 23.05 25.34 C 26.07 27.43 28.74 29.96 31.40 32.49 C 31.31 30.80 31.22 29.11 31.12 27.42 C 29.35 26.18 26.84 25.28 26.38 22.90 C 25.55 18.38 23.96 13.55 25.64 9.03 C 24.21 8.29 22.79 7.54 21.33 6.84 C 21.36 4.94 21.38 3.04 21.40 1.13 Z" />
<path fill="#00e4cb" opacity="1.00" d=" M 43.32 43.38 C 47.98 43.51 49.06 49.33 46.18 52.27 C 47.75 52.08 49.34 52.11 50.91 51.90 C 51.07 53.39 51.23 54.88 51.42 56.37 C 51.49 57.05 51.65 58.42 51.72 59.11 C 49.90 58.25 48.55 56.86 47.31 55.33 C 47.51 56.12 47.92 57.70 48.13 58.49 C 47.25 58.57 45.51 58.72 44.63 58.79 C 44.24 56.65 45.74 53.36 42.99 52.38 C 43.54 51.69 44.05 50.98 44.53 50.25 C 44.91 48.62 44.17 47.04 43.55 45.58 C 43.49 45.03 43.38 43.93 43.32 43.38 Z" />
</g>
<g id="#00d1f1ff">
<path fill="#00d1f1" opacity="1.00" d=" M 41.20 1.11 C 43.60 1.35 46.10 1.54 48.25 2.74 C 53.94 5.64 56.61 13.11 54.21 19.00 C 52.92 22.88 49.72 25.67 46.38 27.82 C 46.21 25.73 46.14 23.64 46.18 21.56 C 49.02 18.72 50.57 14.19 48.43 10.49 C 47.32 8.19 44.77 7.40 42.50 6.77 C 42.11 4.87 41.66 2.99 41.20 1.11 Z" />
<path fill="#00d1f1" opacity="1.00" d=" M 43.08 16.78 C 45.75 20.22 43.95 25.20 44.30 29.27 C 41.58 32.00 38.62 34.77 34.96 36.13 C 34.77 34.37 34.73 32.59 34.53 30.83 C 37.32 28.62 40.13 26.43 42.84 24.13 C 42.78 21.68 42.81 19.22 43.08 16.78 Z" />
<path fill="#00d1f1" opacity="1.00" d=" M 50.33 43.57 C 52.57 43.54 54.82 43.52 57.07 43.52 C 56.96 47.67 57.40 51.85 56.82 55.96 C 56.25 58.27 53.62 58.54 51.72 59.11 C 51.65 58.42 51.49 57.05 51.42 56.37 C 52.00 56.12 53.18 55.61 53.77 55.36 C 54.12 52.40 53.91 49.41 53.94 46.43 C 51.83 46.60 50.28 45.97 50.33 43.57 Z" />
</g>
<g id="#fefefeff">
<path fill="#fefefe" opacity="1.00" d=" M 8.54 42.82 C 11.18 42.82 13.82 42.82 16.46 42.82 C 16.46 43.58 16.46 45.12 16.47 45.88 C 14.96 45.89 13.45 45.88 11.94 45.89 C 11.94 46.70 11.94 48.31 11.94 49.12 C 13.28 49.12 14.62 49.12 15.96 49.12 C 15.89 50.26 15.81 51.40 15.73 52.54 C 14.47 52.53 13.21 52.53 11.94 52.52 C 11.94 53.48 11.95 55.38 11.95 56.33 C 13.41 56.38 14.89 56.38 16.35 56.52 C 16.41 57.24 16.52 58.70 16.58 59.42 C 13.90 59.44 11.22 59.43 8.54 59.43 C 8.54 53.90 8.54 48.36 8.54 42.82 Z" />
<path fill="#fefefe" opacity="1.00" d=" M 16.84 46.03 C 17.85 42.39 23.16 41.81 25.57 44.35 C 26.85 45.65 26.58 47.57 26.76 49.21 C 25.95 49.23 24.35 49.26 23.54 49.28 C 23.65 47.42 22.54 44.67 20.29 46.30 C 19.77 49.57 20.05 52.92 20.16 56.22 C 20.92 56.24 22.42 56.27 23.17 56.29 C 23.24 55.02 23.32 53.75 23.40 52.48 C 24.21 52.50 25.83 52.53 26.63 52.55 C 26.65 53.97 26.56 55.38 26.38 56.78 C 24.68 60.64 17.81 60.38 16.79 56.16 C 16.58 52.79 16.51 49.39 16.84 46.03 Z" />
<path fill="#fefefe" opacity="1.00" d=" M 29.32 43.46 C 31.88 42.10 35.94 42.97 36.76 46.04 C 37.06 49.39 37.02 52.79 36.79 56.15 C 35.91 60.49 28.61 60.70 27.21 56.59 C 26.42 54.09 27.01 51.39 26.88 48.82 C 26.79 46.81 27.26 44.34 29.32 43.46 M 30.53 46.48 C 30.22 49.53 30.18 52.63 30.52 55.67 C 30.91 57.17 33.96 56.58 33.57 54.91 C 33.69 52.12 33.76 49.30 33.45 46.53 C 32.49 45.72 31.51 45.71 30.53 46.48 Z" />
</g>
</svg>
