<?xml version="1.0" encoding="UTF-8" ?>
<!DOCTYPE svg PUBLIC "-//W3C//DTD SVG 1.1//EN" "http://www.w3.org/Graphics/SVG/1.1/DTD/svg11.dtd">
<svg width="128pt" height="128pt" viewBox="0 0 128 128" version="1.1" xmlns="http://www.w3.org/2000/svg">
<g id="#00ecb9ff">
<path fill="#00ecb9" opacity="1.00" d=" M 33.98 4.71 C 42.63 2.73 52.33 5.89 58.19 12.55 C 56.14 12.12 54.06 11.80 52.00 11.43 C 53.16 13.62 53.04 16.00 52.68 18.36 C 52.83 20.44 55.15 20.47 56.68 20.90 C 55.64 23.40 54.26 25.78 53.52 28.39 C 54.13 30.80 56.85 30.92 58.79 31.60 C 56.85 33.00 54.94 34.44 53.02 35.86 C 53.19 37.62 53.57 39.37 53.51 41.15 C 53.19 43.12 52.77 45.07 52.33 47.02 C 51.46 42.18 51.64 37.04 49.15 32.63 C 48.55 28.74 47.16 23.97 50.95 21.23 C 46.70 16.51 39.75 14.47 33.73 16.76 C 35.85 15.65 37.35 13.75 38.64 11.79 C 39.02 11.94 39.78 12.23 40.16 12.37 C 40.00 11.94 39.69 11.08 39.53 10.65 C 38.61 10.33 37.69 10.01 36.76 9.69 C 36.91 8.23 37.05 6.76 37.19 5.30 C 36.12 5.09 35.05 4.90 33.98 4.71 Z" />
</g>
<g id="#01d9e1ff">
<path fill="#01d9e1" opacity="1.00" d=" M 76.35 5.34 C 80.85 4.07 85.76 3.37 90.26 4.96 C 88.52 5.11 86.78 5.30 85.04 5.48 C 85.64 7.18 85.88 9.11 87.02 10.55 C 88.70 11.64 90.56 12.43 92.29 13.43 C 88.50 14.14 84.65 14.67 80.97 15.91 C 79.17 16.53 77.47 17.42 75.81 18.35 C 74.74 18.13 73.66 17.90 72.59 17.67 C 72.55 16.79 72.51 15.92 72.46 15.04 C 71.14 14.08 69.83 13.10 68.54 12.09 C 71.15 10.00 73.90 8.07 76.14 5.56 L 76.35 5.34 Z" />
</g>
<g id="#01f7a3ff">
<path fill="#01f7a3" opacity="1.00" d=" M 14.12 38.09 C 9.99 24.09 19.13 7.07 33.98 4.71 C 35.05 4.90 36.12 5.09 37.19 5.30 C 37.05 6.76 36.91 8.23 36.76 9.69 C 37.69 10.01 38.61 10.33 39.53 10.65 C 39.69 11.08 40.00 11.94 40.16 12.37 C 39.78 12.23 39.02 11.94 38.64 11.79 C 37.35 13.75 35.85 15.65 33.73 16.76 C 28.77 18.82 25.68 23.62 24.70 28.77 C 31.59 29.10 38.49 28.85 45.37 29.21 C 41.43 29.44 37.50 29.72 33.57 30.14 C 33.05 32.96 32.68 35.91 31.28 38.47 C 30.03 39.37 28.58 39.92 27.20 40.57 C 28.98 43.72 32.32 45.37 35.22 47.31 C 35.66 50.09 36.61 52.75 37.22 55.49 C 36.29 56.90 35.04 58.06 33.87 59.27 L 33.11 59.33 C 24.50 54.96 16.42 47.84 14.12 38.09 Z" />
</g>
<g id="#01cef4ff">
<path fill="#01cef4" opacity="1.00" d=" M 85.04 5.48 C 86.78 5.30 88.52 5.11 90.26 4.96 C 104.20 7.63 112.77 23.41 109.45 36.83 C 107.69 45.93 101.01 52.95 93.63 58.06 C 93.30 57.76 92.65 57.16 92.32 56.86 C 91.97 53.24 92.02 49.57 92.17 45.94 C 94.39 42.80 97.16 39.86 98.08 35.99 C 100.25 29.12 97.44 20.49 90.68 17.33 C 87.75 15.59 84.25 15.73 80.97 15.91 C 84.65 14.67 88.50 14.14 92.29 13.43 C 90.56 12.43 88.70 11.64 87.02 10.55 C 85.88 9.11 85.64 7.18 85.04 5.48 Z" />
</g>
<g id="#01e3cdff">
<path fill="#01e3cd" opacity="1.00" d=" M 62.00 15.61 C 66.14 11.57 70.31 7.04 76.14 5.56 C 73.90 8.07 71.15 10.00 68.54 12.09 C 69.83 13.10 71.14 14.08 72.46 15.04 C 72.51 15.92 72.55 16.79 72.59 17.67 C 73.66 17.90 74.74 18.13 75.81 18.35 C 70.24 22.90 64.43 27.14 58.79 31.60 C 56.85 30.92 54.13 30.80 53.52 28.39 C 54.26 25.78 55.64 23.40 56.68 20.90 C 55.15 20.47 52.83 20.44 52.68 18.36 C 53.04 16.00 53.16 13.62 52.00 11.43 C 54.06 11.80 56.14 12.12 58.19 12.55 C 59.51 13.47 60.25 15.47 62.00 15.61 Z" />
</g>
<g id="#04daddff">
<path fill="#04dadd" opacity="1.00" d=" M 70.97 26.13 C 72.74 21.98 79.13 21.58 81.40 25.46 C 83.66 28.76 81.75 33.32 78.08 34.52 C 76.97 39.34 76.79 44.33 75.44 49.09 C 74.26 53.03 70.60 55.42 66.95 56.80 C 66.86 55.67 66.78 54.55 66.71 53.43 C 68.85 52.22 71.39 50.96 72.24 48.46 C 73.38 44.00 74.18 39.44 74.50 34.85 C 71.70 33.05 69.16 29.49 70.97 26.13 Z" />
</g>
<g id="#02f0b0ff">
<path fill="#02f0b0" opacity="1.00" d=" M 33.57 30.14 C 37.50 29.72 41.43 29.44 45.37 29.21 C 46.07 31.45 46.64 33.73 46.96 36.06 C 47.00 37.43 47.80 39.38 46.07 40.06 C 39.82 40.87 33.47 39.93 27.20 40.57 C 28.58 39.92 30.03 39.37 31.28 38.47 C 32.68 35.91 33.05 32.96 33.57 30.14 Z" />
</g>
<g id="#0cddc0ff">
<path fill="#0cddc0" opacity="1.00" d=" M 49.15 32.63 C 51.64 37.04 51.46 42.18 52.33 47.02 C 52.77 45.07 53.19 43.12 53.51 41.15 L 53.67 40.19 C 54.06 44.72 54.54 50.32 59.18 52.58 C 58.39 53.42 57.60 54.26 56.80 55.10 C 54.61 53.70 52.68 51.72 51.93 49.17 C 50.27 43.80 50.15 38.13 49.15 32.63 Z" />
</g>
<g id="#05d9d8ff">
<path fill="#05d9d8" opacity="1.00" d=" M 85.77 37.03 C 86.39 37.27 87.61 37.75 88.23 38.00 C 88.73 42.19 88.39 46.42 88.46 50.63 C 87.82 50.19 86.53 49.32 85.89 48.89 C 85.74 45.18 85.70 41.46 85.76 37.75 L 85.77 37.03 Z" />
<path fill="#05d9d8" opacity="1.00" d=" M 96.17 108.32 C 98.05 108.34 99.93 108.34 101.81 108.36 C 101.98 111.53 100.48 116.66 105.10 117.03 C 105.19 118.29 105.28 119.55 105.38 120.80 C 106.91 120.98 108.44 121.17 109.97 121.31 C 104.80 123.73 96.00 122.18 95.75 115.29 C 95.92 113.34 96.05 111.40 96.13 109.45 L 96.17 108.32 Z" />
</g>
<g id="#00d9e1ff">
<path fill="#00d9e1" opacity="1.00" d=" M 84.76 51.63 C 86.12 47.19 84.20 42.15 85.76 37.75 C 85.70 41.46 85.74 45.18 85.89 48.89 C 86.53 49.32 87.82 50.19 88.46 50.63 C 88.37 54.08 88.56 57.53 88.40 60.98 C 88.47 62.77 86.64 63.57 85.51 64.61 C 81.38 67.71 77.54 71.18 73.43 74.32 C 71.91 75.59 69.12 75.14 68.73 72.96 C 68.55 70.16 67.98 67.00 69.16 64.40 C 74.15 59.90 79.75 56.11 84.76 51.63 Z" />
</g>
<g id="#00eeb5ff">
<path fill="#00eeb5" opacity="1.00" d=" M 35.22 47.31 C 41.23 50.81 46.98 54.75 52.29 59.25 C 49.93 62.31 49.36 66.48 50.95 70.02 C 52.00 72.26 54.54 73.94 54.18 76.68 C 48.16 70.12 41.11 64.68 33.73 59.75 L 33.87 59.27 C 35.04 58.06 36.29 56.90 37.22 55.49 C 36.61 52.75 35.66 50.09 35.22 47.31 Z" />
</g>
<g id="#02e6caff">
<path fill="#02e6ca" opacity="1.00" d=" M 56.80 55.10 C 57.60 54.26 58.39 53.42 59.18 52.58 C 61.57 53.62 64.15 54.36 66.71 53.43 C 66.78 54.55 66.86 55.67 66.95 56.80 C 66.57 57.04 65.81 57.52 65.44 57.76 C 64.98 65.81 65.78 73.90 65.20 81.94 C 64.99 84.53 61.26 85.16 59.77 83.29 C 57.75 81.23 56.01 78.91 54.18 76.68 C 54.54 73.94 52.00 72.26 50.95 70.02 C 49.36 66.48 49.93 62.31 52.29 59.25 C 55.67 62.02 58.67 65.20 61.77 68.26 C 62.03 64.86 62.38 61.40 61.80 58.01 C 60.38 56.67 58.46 56.06 56.80 55.10 Z" />
</g>
<g id="#fffefeff">
<path fill="#fffefe" opacity="1.00" d=" M 15.69 89.90 C 20.88 89.73 26.07 89.75 31.27 89.80 C 31.22 92.04 31.22 94.32 32.85 96.06 C 33.94 89.69 42.22 88.67 47.22 90.73 C 51.88 92.67 52.72 98.26 52.41 102.71 C 50.14 102.73 47.88 102.73 45.61 102.74 C 45.44 101.02 45.89 99.16 45.24 97.52 C 43.97 94.72 38.64 95.51 38.85 98.84 C 38.84 104.51 38.69 110.20 38.93 115.87 C 39.82 117.91 42.44 117.95 44.23 117.27 C 46.48 115.44 45.25 112.16 45.60 109.68 C 47.87 109.65 50.13 109.65 52.40 109.65 C 52.50 113.49 52.78 117.90 49.88 120.89 C 45.32 125.39 36.17 124.83 33.04 118.90 C 31.32 114.85 32.46 110.28 32.10 106.01 C 31.78 102.33 32.91 98.44 31.36 94.96 C 28.95 96.96 25.25 95.22 22.32 96.05 C 22.35 98.24 22.35 100.43 22.37 102.61 C 25.09 102.65 27.81 102.65 30.52 102.66 C 30.38 104.95 30.22 107.24 29.93 109.52 C 27.41 109.54 24.90 109.57 22.39 109.61 C 22.35 112.28 22.33 114.95 22.36 117.62 C 25.37 117.62 28.38 117.61 31.39 117.67 C 31.38 119.70 31.34 121.74 31.18 123.77 C 25.98 123.81 20.79 123.79 15.59 123.79 C 15.62 112.50 15.48 101.20 15.69 89.90 Z" />
</g>
<g id="#fefeffff">
<path fill="#fefeff" opacity="1.00" d=" M 58.49 90.61 C 63.23 88.80 69.85 89.78 72.27 94.74 C 73.95 98.59 73.01 102.92 73.25 106.99 C 73.05 110.84 73.93 114.90 72.45 118.57 C 69.01 126.42 54.91 125.54 53.26 116.79 C 52.91 110.88 53.23 104.94 53.14 99.01 C 52.93 95.46 55.08 91.83 58.49 90.61 M 61.21 96.34 C 59.24 97.53 59.88 100.05 59.76 101.96 C 59.93 106.63 59.56 111.33 59.95 115.99 C 61.21 118.72 66.51 118.26 66.46 114.92 C 66.53 109.30 66.67 103.67 66.41 98.06 C 65.89 95.78 63.02 95.72 61.21 96.34 Z" />
</g>
<g id="#04f6a2ff">
<path fill="#04f6a2" opacity="1.00" d=" M 76.52 91.10 C 80.60 91.05 84.68 91.09 88.76 91.07 L 88.59 91.24 C 86.68 93.08 84.82 94.97 82.92 96.82 C 82.87 99.50 82.87 102.18 82.90 104.86 C 83.81 104.84 85.62 104.81 86.53 104.79 C 86.11 107.16 85.02 109.27 82.98 110.61 C 82.77 114.51 82.88 118.40 82.85 122.30 C 80.75 122.32 78.65 122.31 76.56 122.24 C 76.41 111.86 76.71 101.48 76.52 91.10 Z" />
</g>
<g id="#05cdf4ff">
<path fill="#05cdf4" opacity="1.00" d=" M 101.08 91.16 C 105.44 91.06 109.81 91.12 114.18 91.12 C 114.25 98.75 114.13 106.37 114.11 114.00 C 114.23 116.99 112.53 119.81 109.97 121.31 C 108.44 121.17 106.91 120.98 105.38 120.80 C 105.28 119.55 105.19 118.29 105.10 117.03 C 106.12 116.30 108.05 115.81 107.83 114.18 C 107.91 108.36 107.91 102.54 107.88 96.72 C 105.82 96.67 103.75 96.63 101.69 96.57 C 101.47 94.77 101.27 92.96 101.08 91.16 Z" />
</g>
<g id="#02e8beff">
<path fill="#02e8be" opacity="1.00" d=" M 82.92 96.82 C 84.82 94.97 86.68 93.08 88.59 91.24 C 91.83 91.99 94.60 94.54 95.07 97.92 C 95.42 101.42 95.83 105.89 92.12 107.77 C 93.31 108.69 94.48 109.79 96.13 109.45 C 96.05 111.40 95.92 113.34 95.75 115.29 C 95.41 117.61 95.15 119.94 95.10 122.29 C 93.04 122.31 90.98 122.33 88.92 122.36 C 88.89 118.43 88.95 114.50 88.90 110.57 C 86.93 110.54 84.95 110.53 82.98 110.61 C 85.02 109.27 86.11 107.16 86.53 104.79 C 87.11 104.78 88.28 104.75 88.86 104.73 C 88.90 102.60 89.08 100.46 88.80 98.35 C 87.68 96.13 84.90 97.09 82.92 96.82 Z" />
</g>
</svg>
